<?xml version="1.0" encoding="utf-8"?>
<!-- Generator: Adobe Illustrator 23.0.1, SVG Export Plug-In . SVG Version: 6.00 Build 0)  -->
<svg version="1.2" baseProfile="tiny" id="Capa_1" xmlns="http://www.w3.org/2000/svg" xmlns:xlink="http://www.w3.org/1999/xlink"
	 x="0px" y="0px" viewBox="0 0 126 126" xml:space="preserve">
<linearGradient id="SVGID_1_" gradientUnits="userSpaceOnUse" x1="1.257" y1="122.6109" x2="130.8369" y2="-8.1801">
	<stop  offset="2.717173e-07" style="stop-color:#DC9457"/>
	<stop  offset="1" style="stop-color:#B4705D"/>
</linearGradient>
<path fill="url(#SVGID_1_)" d="M113.9,119.7c-27.1-4.2-64.4-5.8-104.4-6.8C6.7,77.3,5.7,41.8,6.7,6.3l114.4,2.2
	C120.6,46.9,118.3,84,113.9,119.7z"/>
<polygon points="51.3,51.2 0,21.6 0.9,11.4 53.4,43.6 "/>
<polygon points="66.6,51.2 124,36.8 126,26.9 66.6,43.3 "/>
<linearGradient id="SVGID_2_" gradientUnits="userSpaceOnUse" x1="22.0737" y1="82.1239" x2="99.2779" y2="82.1239">
	<stop  offset="3.995842e-07" style="stop-color:#FFFFD7"/>
	<stop  offset="1" style="stop-color:#E8DFDF"/>
</linearGradient>
<path fill="url(#SVGID_2_)" d="M88.7,102c-17.2-1.8-34.4-2.3-55.6-0.4c-4.1,0.4-7.8-2.5-8.6-6.4c-0.2-1.1-0.6-2.2-1-3.2
	c-1.6-3.7-1.5-9.9-1-16.7c0-3.9,2.7-7.2,6.5-7.9c21.9-3.9,42.8-7.7,62.2-3.5c3.5,0.7,6,3.7,6.3,7.2c0,0.4,0.1,0.9,0.2,1.3
	c1.9,7.1,2.2,13.9,0.3,20.3c-0.2,0.7-0.4,1.4-0.5,2.1C97.1,99.2,93.1,102.5,88.7,102z"/>
<g>
	<path fill="none" d="M65.4,72l0,0.3l0,0C65.5,72.1,65.3,72,65.4,72z M65.4,74.1L65.4,74.1L65.4,74.1c0.1,0.2,0,0.2,0,0.4l-0.1,0
		C65.4,74.4,65.3,74.2,65.4,74.1z M65.4,77.1L65.4,77.1l0-0.1L65.4,77.1z M65.5,77.6C65.6,77.6,65.6,77.6,65.5,77.6
		C65.6,77.6,65.6,77.7,65.5,77.6l-0.1-0.3L65.5,77.6z M65.3,78.4l0.1,0.3C65.3,78.5,65.2,78.5,65.3,78.4z M65.4,78.2
		C65.4,78.2,65.5,78.3,65.4,78.2c0.1,0.1,0.1,0.2,0.1,0.3C65.4,78.5,65.4,78.3,65.4,78.2z M65.6,79.1C65.5,79,65.5,79.1,65.6,79.1
		l0-0.2C65.5,78.9,65.6,79,65.6,79.1z M65.5,77.9L65.5,77.9C65.5,77.8,65.5,77.8,65.5,77.9L65.5,77.9z M65.7,77.2c0,0,0-0.1,0-0.2
		C65.7,77,65.6,77.1,65.7,77.2z M65.6,77.4c0-0.1,0-0.3,0-0.3l0.1,0.1C65.6,77.3,65.6,77.3,65.6,77.4z M65.6,76.5
		c0,0.1-0.1,0.2,0,0.3c-0.1-0.1-0.1,0.1-0.2-0.1c0.1,0.1,0.1-0.1,0-0.2C65.5,76.8,65.6,76.5,65.6,76.5z M65.5,71.8
		C65.5,71.8,65.5,71.8,65.5,71.8C65.5,71.8,65.5,71.8,65.5,71.8C65.4,71.7,65.5,72,65.5,71.8c-0.1-0.1-0.1-0.2,0-0.1
		C65.5,71.7,65.5,71.8,65.5,71.8C65.5,71.8,65.5,71.8,65.5,71.8L65.5,71.8c0.1,0,0.1-0.1,0.1-0.2l0.1,0.3l-0.1-0.1
		c0.1,0,0-0.1,0-0.2c0,0.1-0.1,0.1-0.1,0.3L65.5,71.8z M65.8,72.5c0,0.1,0,0.1-0.1,0.1L65.8,72.5c-0.1,0-0.1,0.1-0.1,0.2
		C65.6,72.4,65.7,72.5,65.8,72.5C65.8,72.4,65.8,72.4,65.8,72.5C65.8,72.4,65.8,72.4,65.8,72.5z M66.5,75.7c-0.1-0.2,0-0.1,0-0.3
		c0,0,0,0,0,0l0,0c0-0.1-0.1-0.3-0.1-0.5c0.1,0.2,0,0.4,0.1,0.5l0,0c0,0,0,0,0,0c0,0,0,0,0,0L66.5,75.7z"/>
	<path fill="none" d="M66.3,75C66.3,75,66.2,75,66.3,75C66.2,75,66.2,75,66.3,75L66.3,75C66.3,75,66.3,75,66.3,75z"/>
	<path fill="none" d="M66.7,77.2c0,0.1,0,0.1,0.1,0.2C66.8,77.3,66.8,77.2,66.7,77.2z"/>
	<path d="M34.9,87.2c1.2-0.2,2.2-0.1,3.3-0.3l0.1-0.1c0.9,0,1.9-0.1,2.9-0.1c1.8-0.2,3.6-0.4,5.4-0.5c0,0-0.1-0.1,0.1-0.1
		c0.7-0.1,1.8-0.1,2.9-0.2c0.2,0,0.3,0,0.5,0c0.1,0,0.2-0.1,0.2-0.1c0.5,0,0.9,0,1.3-0.1c5.1-0.5,10.2-0.9,15.8-1.3
		c0.1,0.5,0.2,1,0.3,1.5l-0.1,0.1c0,0.1,0.1,0.2,0.1,0.2c0,0,0,0.1,0,0.1c0,0.1,0,0.2,0.1,0.3c0,0.1,0,0-0.1,0.1
		c0,0.1,0.1,0.3,0.1,0.4c0,0,0,0.1,0,0.2l0,0c0,0.5,0,0.9-0.1,1.2c0.2,0.2,0.1,0.5,0.2,0.8c0.1,0.3,0.2,0.7,0.2,1
		c-0.1,0.4,0,0.8,0.1,1.1c0,0,0,0,0,0.1c0,0,0,0,0,0c0.1,0.4,0.3,0.7,0.4,1c0.3-0.1,0.6-0.1,0.7-0.7c0-0.1,0-0.2,0-0.3
		c0-0.1,0.1-0.3,0.1-0.4c-0.1-0.2-0.2-0.5-0.2-0.8l0-0.1c0-0.1-0.1-0.1-0.1-0.2c0-0.1,0-0.2,0-0.2c0-0.9-0.1-1.7-0.2-2.4
		c-0.1-0.6-0.3-1.2-0.5-1.8c0.1-0.1,0.2-0.3,0.1-0.5c0-0.2,0-0.4-0.1-0.6c1.1-0.1,2.1-0.2,3.1-0.3c1.8-0.1,4-0.1,5.7-0.1
		c-0.3-0.4,3.9-0.6,3.1-1c1.1,0,2.9,0,3-0.1c0.3-0.3,1.1-0.7,4.2-0.9c1.2-0.1,3,0,3.4,0c0.7-0.1-1.6-0.2-0.9-0.3
		c-7.5,0-14.8,0.3-22.3,0.5c0-0.4-0.1-0.7-0.2-1c0,0,0,0,0,0c0-0.2-0.1-0.5-0.1-0.7c-0.1-0.4-0.2-0.9-0.3-1.2
		c-0.1-0.2-0.2-0.4-0.2-0.6c0,0,0-0.1,0-0.1c0,0,0,0,0,0c0,0,0,0,0,0l0,0c0,0,0-0.1,0-0.1c0,0,0,0.1,0,0.1l0,0c0-0.1,0-0.1,0-0.2
		c0-0.2,0-0.5,0-0.6c-0.1-0.1-0.1,0.1,0,0.3c0-0.1-0.1-0.3-0.1-0.4c0,0,0.1,0,0.1-0.1c-0.1-0.2-0.1-0.5-0.2-0.5c0,0,0-0.1,0-0.1
		l-0.1-0.1l0,0c0,0,0,0,0,0.1c-0.1-0.2-0.1-0.5-0.2-0.7c0,0,0,0-0.1,0c0-0.1,0.1,0,0.1,0c0-0.2-0.1-0.3-0.2-0.3l0,0.3c0,0,0,0-0.1,0
		c-0.1-0.1-0.1-0.2-0.1-0.2c0-0.2,0-0.4,0.1-0.6c0,0,0,0,0,0c0,0.1,0,0.3,0,0.4l0-0.2l-0.1-0.1c0-0.1,0-0.1,0.1-0.1l0,0c0,0,0,0,0,0
		l0,0l0-0.1c0,0,0,0,0,0c0-0.1,0.1-0.2,0.1-0.4c0,0,0,0,0,0c0-0.1,0-0.2,0-0.3c0,0,0-0.1-0.1-0.2c0,0,0,0,0,0c0-0.1-0.1-0.1-0.1-0.1
		c0,0,0,0-0.1,0C66,74,66,74.1,66,74.3l0,0l0,0c0,0,0,0,0,0c0,0.1,0,0.3,0,0.3c-0.1,0.1-0.1,0.1-0.1,0.2c-0.1,0.1-0.2-0.1-0.2-0.1
		c-0.2,0.4,0,1.3,0.1,2c0,0.1,0.2,0.1,0.2,0.3l0,0.2c0,0.1,0.1,0.3,0.1,0.3c-0.1,0.4,0.2,1.2,0.2,1.7c0,0.3,0.1,0.6,0.1,1
		c0,0.3,0.1,0.8,0.2,1.2l0.1,0.2c0.1,0.2,0,0.4,0.1,0.5c0,0,0,0,0,0c-1,0-2,0.1-3,0.1c-1.5,0.1-7.4,0.4-13.6,0.8
		c-6.2,0.4-12.6,1-15.2,1.3l-0.5,0.1c-2.9,0.3-6.3,0.9-8.7,1.5c-1.1,0.3-2.2,0.6-3.3,0.9c0.5,0,1-0.1,1.4-0.1
		c-0.6,0.1-1.2,0.2-1.7,0.3c0.1,0.8,0.2,1.6,0.3,2.3c4-0.7,8.1-1.4,12.1-1.9C34.7,87.3,34.5,87.2,34.9,87.2z M66.8,77.4
		c0-0.1,0-0.1-0.1-0.2C66.8,77.2,66.8,77.3,66.8,77.4z M66.2,75C66.2,75,66.3,75,66.2,75C66.3,75,66.3,75,66.2,75L66.2,75
		C66.2,75,66.2,75,66.2,75z"/>
	<path d="M65.6,71.9L65.6,71.9l0-0.2c0,0.1,0,0.2-0.1,0.2L65.6,71.9c-0.1,0,0-0.1,0-0.2C65.7,71.8,65.7,71.9,65.6,71.9z"/>
	<path d="M65.5,71.8C65.5,71.8,65.5,71.8,65.5,71.8C65.5,71.8,65.5,71.8,65.5,71.8L65.5,71.8C65.5,71.8,65.5,71.8,65.5,71.8z"/>
	<path d="M65.5,71.9C65.5,72,65.4,71.7,65.5,71.9c0-0.1,0-0.1,0-0.2C65.4,71.7,65.5,71.8,65.5,71.9z"/>
	<path d="M65.6,72.6c0-0.1,0-0.1,0.1-0.1L65.6,72.6c0.1,0,0.1-0.1,0.1-0.2C65.7,72.5,65.6,72.4,65.6,72.6z"/>
	<path fill="none" stroke="#000000" stroke-width="0" stroke-linecap="round" stroke-linejoin="round" d="M65.8,72.5
		C65.8,72.4,65.8,72.4,65.8,72.5"/>
	<path d="M65.4,72.3l0-0.3C65.3,72,65.5,72.1,65.4,72.3L65.4,72.3z"/>
	<path d="M66.5,75.4C66.5,75.4,66.5,75.4,66.5,75.4C66.5,75.4,66.5,75.4,66.5,75.4L66.5,75.4z"/>
	<path d="M66.5,75.7l0-0.2c0,0,0,0,0,0C66.5,75.5,66.5,75.5,66.5,75.7z"/>
	<path d="M66.4,74.9c0,0.2,0,0.4,0.1,0.5l0,0C66.4,75.2,66.5,75.1,66.4,74.9z"/>
	<path d="M65.4,74.5c-0.1-0.2,0-0.2,0-0.4l0,0l0,0c-0.1,0.1,0,0.3-0.1,0.4L65.4,74.5z"/>
	<path d="M65.5,76.5c0,0.1,0.1,0.3,0,0.2c0,0.2,0.1,0,0.2,0.1c-0.1-0.1,0-0.2,0-0.3C65.6,76.5,65.5,76.8,65.5,76.5z"/>
	<path d="M65.6,77c0,0.1,0,0.2,0,0.2C65.6,77.1,65.7,77,65.6,77z"/>
	<polygon points="65.4,77.1 65.5,77 65.4,77.1 	"/>
	<path d="M65.6,77.5C65.6,77.6,65.6,77.6,65.6,77.5l-0.1-0.2l0,0.3C65.6,77.7,65.6,77.6,65.6,77.5z"/>
	<path d="M65.6,77.4c0-0.1,0-0.2,0-0.2l-0.1-0.1C65.5,77.2,65.6,77.3,65.6,77.4z"/>
	<path d="M65.5,77.8L65.5,77.8l0.1,0C65.5,77.8,65.5,77.8,65.5,77.8z"/>
	<path d="M65.5,78.2C65.5,78.3,65.4,78.2,65.5,78.2c-0.1,0.1,0,0.3,0,0.3C65.5,78.4,65.5,78.3,65.5,78.2z"/>
	<path d="M65.4,78.6l-0.1-0.3C65.2,78.5,65.3,78.5,65.4,78.6z"/>
	<path d="M65.5,79C65.5,79.1,65.5,79,65.5,79c0.1,0,0.1-0.1,0.1-0.2L65.5,79z"/>
</g>
</svg>
